General

Name                             : Dr Strangelove[1964]BRrip[Ac3-5.1]-=[CaLvIn]=-
Imdb Link                        : http://www.imdb.com/title/tt0057012
Format                           : AVI
Format/Info                      : Audio Video Interleave
File size                        : 699 MiB
Duration                         : 1h 34mn
Overall bit rate                 : 1 031 Kbps
Writing application              : VirtualDubMod 1.5.10.3 | www.virtualdub-fr.org || (build 2550/release)
Writing library                  : VirtualDubMod build 2550/release

Video
ID                               : 0
Format                           : MPEG-4 Visual
Format profile                   : Advanced Simple@L5
Format settings, BVOP            : 2
Format settings, QPel            : No
Format settings, GMC             : No warppoints
Format settings, Matrix          : Default (H.263)
Codec ID                         : XVID
Codec ID/Hint                    : XviD
Duration                         : 1h 34mn
Bit rate                         : 830 Kbps
Width                            : 720 pixels
Height                           : 432 pixels
Display aspect ratio             : 16:9
Frame rate                       : 23.976 fps
Color space                      : YUV
Chroma subsampling               : 4:2:0
Bit depth                        : 8 bits
Scan type                        : Progressive
Compression mode                 : Lossy
Bits/(Pixel*Frame)               : 0.111
Stream size                      : 562 MiB (80%)
Writing library                  : XviD 1.2.1 (UTC 2008-12-04)

Audio
ID                               : 1
Format                           : AC-3
Format/Info                      : Audio Coding 3
Mode extension                   : CM (complete main)
Codec ID                         : 2000
Duration                         : 1h 34mn
Bit rate mode                    : Constant
Bit rate                         : 192 Kbps
Channel(s)                       : 6 channels
Channel positions                : Front: L C R, Side: L R, LFE
Sampling rate                    : 48.0 KHz
Bit depth                        : 16 bits
Compression mode                 : Lossy
Stream size                      : 130 MiB (19%)
Alignment                        : Split accross interleaves
Interleave, duration             : 42 ms (1.00 video frame)
Interleave, preload duration     : 500 ms

Screens :-
 
http://img826.imageshack.us/img826/8459/10851261.png 
http://img706.imageshack.us/img706/6359/50568930.png 
http://img100.imageshack.us/img100/5055/17808690.png 
http://img707.imageshack.us/img707/9234/66903022.png 
http://img254.imageshack.us/img254/2842/97247518.png 
http://img856.imageshack.us/img856/3179/77511393.png 
http://img39.imageshack.us/img39/9462/72341924.png 
http://img40.imageshack.us/img40/4709/78501468.png 
http://img10.imageshack.us/img10/2491/15110006.png 
http://img152.imageshack.us/img152/4130/84386090.png

